<svg id="Capa_1" data-name="Capa 1" xmlns="http://www.w3.org/2000/svg" viewBox="0 0 96.91 96.91"><circle cx="48.45" cy="48.45" r="47.45" style="fill:#74cbef"/><path d="M50.18,98.52A48.46,48.46,0,1,1,98.63,50.07,48.51,48.51,0,0,1,50.18,98.52Zm0-94.91A46.46,46.46,0,1,0,96.63,50.07,46.51,46.51,0,0,0,50.18,3.61Z" transform="translate(-1.72 -1.61)" style="fill:#1d71b8"/><path d="M33.42,55.18,27.15,31.32c-.29-1.08,0-1.47,1-1.75L53.24,23a1.51,1.51,0,0,1,1.16.11q5.34,2.72,10.67,5.4a1.35,1.35,0,0,1,.74.89q5.28,20.15,10.58,40.29a1.08,1.08,0,0,1-.87,1.49l-34.23,9c-.85.23-1.32-.07-1.56-1Q36.58,67.18,33.42,55.18Zm1-.25h0q3.14,11.91,6.26,23.82c.08.31.17.39.49.3Q58.11,74.6,75,70.17c.31-.08.37-.18.29-.5Q70.21,50.38,65.14,31.09c-.09-.35-.18-.42-.54-.31-2.73.76-5.46,1.5-8.19,2.24-1,.27-1.45,0-1.71-1-.64-2.44-1.29-4.87-1.91-7.32-.11-.41-.24-.45-.62-.35q-11.78,3.12-23.55,6.19c-.45.12-.5.27-.39.68Q31.37,43.09,34.47,54.93ZM64.33,29.8v-.17L53.73,24c.7,2.66,1.37,5.2,2,7.74.06.24.14.3.38.23.5-.16,1-.29,1.52-.42Z" transform="translate(-1.72 -1.61)" style="fill:#141515"/><path d="M34.47,54.93q-3.11-11.85-6.24-23.69c-.11-.41-.06-.56.39-.68q11.77-3.07,23.55-6.19c.38-.1.51-.06.62.35.62,2.45,1.27,4.88,1.91,7.32.26,1,.71,1.25,1.71,1,2.73-.74,5.46-1.48,8.19-2.24.36-.11.45,0,.54.31q5.07,19.29,10.15,38.58c.08.32,0,.42-.29.5Q58.11,74.6,41.22,79.05c-.32.09-.41,0-.49-.3q-3.12-11.91-6.26-23.82ZM49.29,43.2l-1.75.46-10.9,2.87c-.14,0-.4,0-.39.18a2.1,2.1,0,0,0,.23.89c.09.17.34,0,.5,0l25.17-6.62.32-.08c.05,0,.14-.06.14-.09a2.28,2.28,0,0,0-.21-.89c-.1-.21-.31,0-.46,0Zm2,8.17q-6.36,1.68-12.73,3.34c-.52.13-.32.39-.26.67s.1.53.55.41q12.66-3.36,25.34-6.66c.52-.13.37-.37.3-.69s-.15-.51-.6-.39Q57.6,49.73,51.28,51.37Zm1.16,5.17L65,53.25c.65-.17.63-.17.47-.85-.08-.33-.22-.35-.51-.28q-12.67,3.35-25.34,6.66c-.59.16-.33.45-.29.78s.25.38.57.3Q46.14,58.18,52.44,56.54Zm1.7,7.12L41.5,67c-.36.09-.46.22-.32.55s0,.69.6.53c2.66-.74,5.34-1.42,8-2.12l17.3-4.56c.13,0,.34,0,.37-.15a1.51,1.51,0,0,0-.2-.88c-.08-.22-.3-.06-.44,0ZM50.31,47.29c-4.23,1.11-8.46,2.24-12.7,3.32-.54.14-.34.4-.29.7s.16.48.57.37Q50.51,48.34,63.14,45a2.8,2.8,0,0,0,.31-.09c.06,0,.15-.07.14-.09a3.74,3.74,0,0,0-.22-.89c-.09-.18-.31,0-.46,0Zm3.16,13.32h0l12.2-3.21c.21-.06.42-.12.63-.16s.26-.13.2-.33a2.12,2.12,0,0,1-.12-.45c0-.29-.17-.31-.44-.24Q53.22,59.57,40.5,62.9c-.55.14-.3.42-.25.7s.14.46.53.36Q47.13,62.27,53.47,60.61Zm2-22.25c1.93-.51,3.85-1,5.78-1.51.43-.11.4-.3.3-.61s-.06-.62-.59-.47c-3.76,1-7.52,2-11.29,3-.66.17-.64.17-.48.84.07.32.19.38.5.3C51.63,39.36,53.56,38.87,55.49,38.36ZM46.15,71.23c1.17-.3,2.33-.62,3.5-.91.35-.08.43-.22.29-.53a.9.9,0,0,1-.06-.22c0-.35-.18-.42-.52-.32-1.1.32-2.21.59-3.31.88s-2.45.65-3.68,1c-.24.06-.35.15-.25.41a1.48,1.48,0,0,1,.1.36c0,.32.17.38.49.29C43.85,71.83,45,71.54,46.15,71.23Z" transform="translate(-1.72 -1.61)" style="fill:#fefdfe"/><path d="M64.33,29.8l-6.67,1.75c-.51.13-1,.26-1.52.42-.24.07-.32,0-.38-.23-.66-2.54-1.33-5.08-2-7.74l10.59,5.63Z" transform="translate(-1.72 -1.61)" style="fill:#fefdfe"/><path d="M49.29,43.2l12.65-3.32c.15,0,.36-.21.46,0a2.28,2.28,0,0,1,.21.89s-.09.07-.14.09l-.32.08L37,47.56c-.16,0-.41.21-.5,0a2.1,2.1,0,0,1-.23-.89c0-.15.25-.14.39-.18l10.9-2.87Z" transform="translate(-1.72 -1.61)" style="fill:#141515"/><path d="M51.28,51.37q6.31-1.65,12.6-3.32c.45-.12.52,0,.6.39s.22.56-.3.69q-12.68,3.3-25.34,6.66c-.45.12-.49-.1-.55-.41s-.26-.54.26-.67Q44.93,53.06,51.28,51.37Z" transform="translate(-1.72 -1.61)" style="fill:#141515"/><path d="M52.44,56.54q-6.3,1.65-12.59,3.32c-.32.08-.52.1-.57-.3s-.3-.62.29-.78q12.68-3.3,25.34-6.66c.29-.07.43,0,.51.28.16.68.18.68-.47.85Z" transform="translate(-1.72 -1.61)" style="fill:#141515"/><path d="M54.14,63.66l12.69-3.33c.14,0,.36-.2.44,0a1.51,1.51,0,0,1,.2.88c0,.14-.24.12-.37.15L49.8,65.94c-2.68.7-5.36,1.38-8,2.12-.59.16-.48-.25-.6-.53s0-.46.32-.55Z" transform="translate(-1.72 -1.61)" style="fill:#141515"/><path d="M50.31,47.29,62.91,44c.15,0,.37-.2.46,0a3.74,3.74,0,0,1,.22.89s-.08.07-.14.09a2.8,2.8,0,0,1-.31.09q-12.63,3.31-25.25,6.65c-.41.11-.51,0-.57-.37s-.25-.56.29-.7C41.85,49.53,46.08,48.4,50.31,47.29Z" transform="translate(-1.72 -1.61)" style="fill:#141515"/><path d="M53.47,60.61Q47.13,62.28,40.78,64c-.39.1-.48,0-.53-.36s-.3-.56.25-.7q12.74-3.32,25.44-6.68c.27-.07.4,0,.44.24a2.12,2.12,0,0,0,.12.45c.06.2,0,.29-.2.33s-.42.1-.63.16l-12.2,3.21Z" transform="translate(-1.72 -1.61)" style="fill:#141515"/><path d="M55.49,38.36c-1.93.51-3.86,1-5.78,1.53-.31.08-.43,0-.5-.3-.16-.67-.18-.67.48-.84,3.77-1,7.53-2,11.29-3,.53-.15.49.18.59.47s.13.5-.3.61C59.34,37.33,57.42,37.85,55.49,38.36Z" transform="translate(-1.72 -1.61)" style="fill:#141515"/><path d="M46.15,71.23c-1.15.31-2.3.6-3.44.92-.32.09-.46,0-.49-.29a1.48,1.48,0,0,0-.1-.36c-.1-.26,0-.35.25-.41,1.23-.31,2.45-.64,3.68-1s2.21-.56,3.31-.88c.34-.1.49,0,.52.32a.9.9,0,0,0,.06.22c.14.31.06.45-.29.53C48.48,70.61,47.32,70.93,46.15,71.23Z" transform="translate(-1.72 -1.61)" style="fill:#141515"/><path d="M31,36.76a2.8,2.8,0,0,0,1.23,0c.4-.11.53-.29.47-.51S32.44,36,31.9,36c-1-.06-1.42-.45-1.55-1-.21-.79.3-1.58,1.35-1.86A3,3,0,0,1,33,33.06v1a2,2,0,0,0-1,0c-.32.09-.47.27-.41.49s.25.26.82.3c.88.06,1.33.38,1.51,1,.21.79-.26,1.54-1.47,1.87a3.1,3.1,0,0,1-1.46.07Z" transform="translate(-1.72 -1.61)" style="fill:#266ca1"/><path d="M35,31.1a.69.69,0,0,1-.54.85.69.69,0,1,1-.35-1.33A.69.69,0,0,1,35,31.1Zm.1,5.8-1.15-4.25,1.32-.36,1.15,4.25Z" transform="translate(-1.72 -1.61)" style="fill:#266ca1"/><path d="M35.77,30.09l1.32-.36,1.67,6.17-1.32.36Z" transform="translate(-1.72 -1.61)" style="fill:#266ca1"/><path d="M42.24,35l-.19-.4h0a1.59,1.59,0,0,1-1.07.85,1.36,1.36,0,0,1-1.73-.94c-.3-1.1.55-1.9,2.06-2.3l0-.06c-.06-.22-.27-.51-.92-.34a2.59,2.59,0,0,0-1.09.64l-.47-.79a3.61,3.61,0,0,1,1.55-.81,1.71,1.71,0,0,1,2.37,1.33l.39,1.47a7.5,7.5,0,0,0,.34,1Zm-.7-2c-.69.17-1.19.49-1,1a.49.49,0,0,0,.66.36.76.76,0,0,0,.56-.67,2.23,2.23,0,0,0,0-.23Z" transform="translate(-1.72 -1.61)" style="fill:#266ca1"/><path d="M44.38,34.39c-.06-.29-.18-.8-.31-1.28l-1.32-4.9,1.32-.36.66,2.42h0a1.59,1.59,0,0,1,1.13-.95A2,2,0,0,1,48.2,31a2.12,2.12,0,0,1-1.32,2.82,1.47,1.47,0,0,1-1.47-.35h0l.11.6Zm.87-2.18a.69.69,0,0,0,.09.23.83.83,0,0,0,.94.42c.56-.15.8-.68.59-1.45s-.62-1.1-1.23-.93a.83.83,0,0,0-.6.86,1.18,1.18,0,0,0,0,.25Z" transform="translate(-1.72 -1.61)" style="fill:#266ca1"/><path d="M53.25,29.67a2.21,2.21,0,0,1-1.63,2.87,2.16,2.16,0,0,1-2.79-1.6,2.2,2.2,0,0,1,1.66-2.86A2.14,2.14,0,0,1,53.25,29.67Zm-3.07.87c.2.73.65,1.19,1.22,1s.7-.74.5-1.5-.59-1.22-1.19-1S50,29.91,50.18,30.54Z" transform="translate(-1.72 -1.61)" style="fill:#266ca1"/></svg>